<svg xmlns="http://www.w3.org/2000/svg" width="1392" height="1130" viewBox="0 0 1392 1130">
<title>EKO Restaurant &amp; Lounge Logo</title>
<desc>Vectorized logo converted from the provided image.</desc>
<g fill="#050505" fill-rule="evenodd">
<path d="M 406.0 884.0 L 409.0 883.0 L 420.0 896.0 L 417.0 899.0 L 410.0 901.0 L 406.0 900.0 L 402.0 896.0 L 401.0 891.0 Z"/>
<path d="M 622.0 861.0 L 629.0 861.0 L 634.0 863.0 L 640.0 869.0 L 643.0 878.0 L 642.0 887.0 L 639.0 893.0 L 635.0 897.0 L 628.0 900.0 L 622.0 900.0 L 614.0 896.0 L 610.0 891.0 L 608.0 886.0 L 608.0 874.0 L 611.0 868.0 L 615.0 864.0 Z"/>
<path d="M 416.0 860.0 L 418.0 862.0 L 418.0 867.0 L 414.0 871.0 L 410.0 872.0 L 407.0 867.0 L 407.0 864.0 L 410.0 860.0 Z"/>
<path d="M 980.0 853.0 L 979.0 854.0 L 979.0 907.0 L 1015.0 907.0 L 1015.0 901.0 L 1016.0 900.0 L 1015.0 899.0 L 989.0 899.0 L 988.0 898.0 L 988.0 885.0 L 989.0 884.0 L 1008.0 884.0 L 1009.0 883.0 L 1009.0 876.0 L 1006.0 875.0 L 989.0 875.0 L 988.0 874.0 L 988.0 863.0 L 989.0 862.0 L 1014.0 862.0 L 1015.0 860.0 L 1014.0 853.0 Z"/>
<path d="M 791.0 853.0 L 791.0 863.0 L 790.0 864.0 L 791.0 868.0 L 790.0 903.0 L 791.0 905.0 L 790.0 906.0 L 791.0 907.0 L 799.0 907.0 L 800.0 906.0 L 799.0 900.0 L 800.0 899.0 L 800.0 872.0 L 801.0 871.0 L 825.0 904.0 L 828.0 907.0 L 835.0 907.0 L 835.0 854.0 L 834.0 853.0 L 827.0 853.0 L 826.0 854.0 L 826.0 888.0 L 825.0 889.0 L 802.0 857.0 L 798.0 853.0 Z"/>
<path d="M 700.0 853.0 L 699.0 854.0 L 699.0 891.0 L 703.0 901.0 L 708.0 905.0 L 715.0 908.0 L 727.0 908.0 L 734.0 905.0 L 740.0 899.0 L 743.0 890.0 L 743.0 854.0 L 742.0 853.0 L 735.0 853.0 L 734.0 854.0 L 734.0 888.0 L 732.0 894.0 L 726.0 899.0 L 718.0 900.0 L 715.0 899.0 L 710.0 894.0 L 708.0 889.0 L 708.0 854.0 L 707.0 853.0 Z"/>
<path d="M 527.0 853.0 L 526.0 854.0 L 526.0 907.0 L 560.0 907.0 L 560.0 899.0 L 536.0 899.0 L 535.0 898.0 L 535.0 854.0 L 534.0 853.0 Z"/>
<path d="M 899.0 854.0 L 889.0 861.0 L 885.0 867.0 L 883.0 873.0 L 883.0 887.0 L 887.0 897.0 L 894.0 904.0 L 904.0 908.0 L 917.0 908.0 L 928.0 904.0 L 931.0 902.0 L 931.0 879.0 L 912.0 879.0 L 912.0 887.0 L 922.0 887.0 L 923.0 888.0 L 923.0 896.0 L 915.0 900.0 L 907.0 900.0 L 900.0 897.0 L 896.0 893.0 L 893.0 887.0 L 892.0 878.0 L 895.0 869.0 L 901.0 863.0 L 905.0 861.0 L 917.0 862.0 L 924.0 868.0 L 930.0 863.0 L 930.0 861.0 L 923.0 855.0 L 914.0 852.0 L 905.0 852.0 Z"/>
<path d="M 621.0 852.0 L 612.0 855.0 L 603.0 863.0 L 600.0 868.0 L 598.0 875.0 L 598.0 886.0 L 602.0 896.0 L 607.0 902.0 L 619.0 908.0 L 631.0 908.0 L 641.0 904.0 L 648.0 897.0 L 652.0 888.0 L 653.0 877.0 L 649.0 865.0 L 643.0 858.0 L 634.0 853.0 Z"/>
<path d="M 403.0 855.0 L 399.0 861.0 L 399.0 870.0 L 403.0 877.0 L 395.0 884.0 L 392.0 891.0 L 392.0 896.0 L 396.0 904.0 L 403.0 908.0 L 415.0 908.0 L 424.0 903.0 L 426.0 903.0 L 430.0 907.0 L 441.0 907.0 L 432.0 896.0 L 438.0 885.0 L 439.0 880.0 L 431.0 880.0 L 426.0 889.0 L 416.0 878.0 L 425.0 870.0 L 427.0 866.0 L 427.0 862.0 L 424.0 856.0 L 415.0 852.0 L 411.0 852.0 Z"/>
<path d="M 935.0 747.0 L 941.0 760.0 L 943.0 768.0 L 942.0 769.0 L 927.0 769.0 L 926.0 767.0 L 930.0 759.0 L 933.0 749.0 Z"/>
<path d="M 635.0 747.0 L 637.0 749.0 L 644.0 768.0 L 643.0 769.0 L 628.0 769.0 L 627.0 768.0 L 631.0 755.0 Z"/>
<path d="M 826.0 743.0 L 827.0 742.0 L 841.0 742.0 L 846.0 746.0 L 847.0 749.0 L 846.0 755.0 L 841.0 759.0 L 827.0 759.0 L 826.0 758.0 Z"/>
<path d="M 253.0 743.0 L 254.0 742.0 L 268.0 742.0 L 270.0 743.0 L 274.0 748.0 L 273.0 755.0 L 270.0 758.0 L 265.0 760.0 L 255.0 760.0 L 253.0 758.0 Z"/>
<path d="M 1114.0 733.0 L 1114.0 742.0 L 1131.0 742.0 L 1132.0 743.0 L 1132.0 790.0 L 1142.0 790.0 L 1142.0 743.0 L 1143.0 742.0 L 1160.0 742.0 L 1161.0 741.0 L 1161.0 734.0 L 1160.0 733.0 Z"/>
<path d="M 1014.0 733.0 L 1014.0 790.0 L 1023.0 790.0 L 1023.0 758.0 L 1024.0 757.0 L 1023.0 752.0 L 1024.0 751.0 L 1026.0 752.0 L 1051.0 787.0 L 1054.0 790.0 L 1062.0 790.0 L 1062.0 734.0 L 1061.0 733.0 L 1053.0 733.0 L 1052.0 734.0 L 1052.0 770.0 L 1051.0 771.0 L 1023.0 733.0 Z"/>
<path d="M 931.0 733.0 L 928.0 738.0 L 907.0 790.0 L 917.0 790.0 L 923.0 777.0 L 947.0 777.0 L 952.0 790.0 L 962.0 790.0 L 954.0 768.0 L 939.0 733.0 Z"/>
<path d="M 817.0 733.0 L 816.0 734.0 L 816.0 790.0 L 826.0 790.0 L 826.0 769.0 L 827.0 768.0 L 836.0 768.0 L 848.0 790.0 L 859.0 790.0 L 846.0 767.0 L 856.0 757.0 L 857.0 747.0 L 854.0 740.0 L 851.0 737.0 L 840.0 733.0 Z"/>
<path d="M 713.0 733.0 L 713.0 774.0 L 716.0 782.0 L 722.0 788.0 L 729.0 791.0 L 743.0 791.0 L 752.0 787.0 L 757.0 781.0 L 760.0 772.0 L 760.0 733.0 L 751.0 733.0 L 750.0 734.0 L 750.0 772.0 L 748.0 777.0 L 744.0 781.0 L 738.0 783.0 L 731.0 782.0 L 725.0 777.0 L 723.0 773.0 L 723.0 734.0 L 722.0 733.0 Z"/>
<path d="M 631.0 733.0 L 608.0 790.0 L 618.0 790.0 L 623.0 777.0 L 647.0 777.0 L 651.0 785.0 L 652.0 790.0 L 663.0 790.0 L 639.0 733.0 Z"/>
<path d="M 519.0 733.0 L 519.0 742.0 L 537.0 742.0 L 538.0 743.0 L 537.0 744.0 L 538.0 747.0 L 538.0 764.0 L 537.0 765.0 L 538.0 790.0 L 547.0 790.0 L 547.0 743.0 L 548.0 742.0 L 566.0 742.0 L 566.0 733.0 Z"/>
<path d="M 340.0 733.0 L 339.0 734.0 L 340.0 790.0 L 379.0 790.0 L 379.0 782.0 L 351.0 782.0 L 349.0 780.0 L 349.0 766.0 L 350.0 765.0 L 371.0 765.0 L 371.0 757.0 L 370.0 756.0 L 360.0 756.0 L 359.0 757.0 L 350.0 756.0 L 349.0 755.0 L 349.0 743.0 L 350.0 742.0 L 377.0 742.0 L 378.0 741.0 L 378.0 734.0 L 377.0 733.0 Z"/>
<path d="M 244.0 733.0 L 244.0 790.0 L 253.0 790.0 L 253.0 769.0 L 254.0 768.0 L 263.0 768.0 L 265.0 770.0 L 275.0 790.0 L 286.0 790.0 L 283.0 783.0 L 273.0 767.0 L 278.0 764.0 L 283.0 758.0 L 284.0 745.0 L 282.0 741.0 L 277.0 736.0 L 268.0 733.0 Z"/>
<path d="M 445.0 732.0 L 434.0 738.0 L 431.0 744.0 L 431.0 752.0 L 432.0 755.0 L 438.0 761.0 L 456.0 768.0 L 460.0 772.0 L 460.0 777.0 L 457.0 781.0 L 453.0 783.0 L 444.0 782.0 L 440.0 780.0 L 435.0 775.0 L 428.0 781.0 L 435.0 788.0 L 439.0 790.0 L 456.0 791.0 L 462.0 789.0 L 468.0 783.0 L 470.0 779.0 L 470.0 770.0 L 468.0 765.0 L 462.0 760.0 L 445.0 754.0 L 441.0 750.0 L 441.0 745.0 L 446.0 741.0 L 455.0 741.0 L 463.0 746.0 L 468.0 741.0 L 468.0 739.0 L 459.0 733.0 Z"/>
<path d="M 478.0 263.0 L 478.0 268.0 L 479.0 269.0 L 487.0 269.0 L 498.0 272.0 L 506.0 279.0 L 509.0 285.0 L 510.0 296.0 L 511.0 297.0 L 511.0 595.0 L 510.0 596.0 L 509.0 608.0 L 505.0 616.0 L 497.0 622.0 L 485.0 625.0 L 478.0 625.0 L 478.0 631.0 L 482.0 632.0 L 494.0 632.0 L 495.0 631.0 L 507.0 631.0 L 508.0 632.0 L 594.0 632.0 L 595.0 631.0 L 595.0 626.0 L 594.0 625.0 L 578.0 623.0 L 571.0 619.0 L 566.0 613.0 L 563.0 602.0 L 563.0 475.0 L 595.0 443.0 L 719.0 596.0 L 743.0 620.0 L 759.0 628.0 L 772.0 631.0 L 782.0 631.0 L 783.0 632.0 L 841.0 631.0 L 841.0 625.0 L 823.0 623.0 L 817.0 621.0 L 807.0 615.0 L 786.0 594.0 L 753.0 555.0 L 750.0 550.0 L 632.0 406.0 L 703.0 337.0 L 754.0 291.0 L 768.0 281.0 L 782.0 274.0 L 795.0 270.0 L 807.0 269.0 L 810.0 267.0 L 810.0 264.0 L 809.0 263.0 L 715.0 263.0 L 715.0 268.0 L 716.0 269.0 L 726.0 270.0 L 732.0 273.0 L 735.0 276.0 L 736.0 283.0 L 730.0 294.0 L 564.0 456.0 L 563.0 455.0 L 563.0 291.0 L 567.0 279.0 L 572.0 274.0 L 581.0 270.0 L 594.0 269.0 L 595.0 268.0 L 595.0 263.0 Z"/>
<path d="M 121.0 263.0 L 121.0 268.0 L 122.0 269.0 L 130.0 269.0 L 138.0 271.0 L 144.0 274.0 L 149.0 279.0 L 152.0 285.0 L 153.0 299.0 L 154.0 300.0 L 154.0 591.0 L 153.0 592.0 L 153.0 603.0 L 151.0 611.0 L 145.0 619.0 L 134.0 624.0 L 121.0 625.0 L 121.0 631.0 L 388.0 632.0 L 405.0 554.0 L 400.0 555.0 L 392.0 573.0 L 385.0 584.0 L 369.0 601.0 L 351.0 612.0 L 333.0 618.0 L 323.0 619.0 L 322.0 620.0 L 313.0 620.0 L 312.0 621.0 L 224.0 621.0 L 214.0 618.0 L 209.0 613.0 L 206.0 603.0 L 206.0 449.0 L 207.0 448.0 L 271.0 448.0 L 275.0 447.0 L 276.0 448.0 L 291.0 448.0 L 307.0 451.0 L 317.0 455.0 L 328.0 464.0 L 335.0 476.0 L 339.0 490.0 L 343.0 490.0 L 342.0 451.0 L 341.0 450.0 L 341.0 422.0 L 342.0 421.0 L 343.0 395.0 L 338.0 396.0 L 335.0 408.0 L 329.0 418.0 L 322.0 425.0 L 306.0 432.0 L 297.0 434.0 L 290.0 434.0 L 289.0 435.0 L 207.0 435.0 L 206.0 434.0 L 206.0 274.0 L 207.0 273.0 L 310.0 273.0 L 311.0 274.0 L 321.0 274.0 L 338.0 278.0 L 349.0 283.0 L 364.0 295.0 L 373.0 308.0 L 381.0 331.0 L 385.0 331.0 L 380.0 263.0 Z"/>
</g>
<g fill="#C58A06" fill-rule="evenodd">
<path d="M 697.0 1024.0 L 688.0 1035.0 L 698.0 1045.0 L 707.0 1036.0 L 707.0 1034.0 Z"/>
<path d="M 697.0 997.0 L 702.0 1001.0 L 730.0 1034.0 L 728.0 1038.0 L 698.0 1072.0 L 696.0 1071.0 L 666.0 1036.0 L 667.0 1032.0 Z"/>
<path d="M 773.0 997.0 L 774.0 996.0 L 831.0 996.0 L 832.0 998.0 L 807.0 1026.0 L 802.0 1030.0 Z"/>
<path d="M 561.0 997.0 L 562.0 996.0 L 619.0 996.0 L 620.0 998.0 L 595.0 1026.0 L 590.0 1030.0 Z"/>
<path d="M 746.0 986.0 L 803.0 1048.0 L 860.0 985.0 L 746.0 985.0 Z"/>
<path d="M 534.0 986.0 L 588.0 1046.0 L 591.0 1048.0 L 648.0 985.0 L 534.0 985.0 Z"/>
<path d="M 697.0 979.0 L 650.0 1035.0 L 698.0 1091.0 L 746.0 1035.0 L 703.0 984.0 Z"/>
<path d="M 1077.0 877.0 L 1077.0 881.0 L 1080.0 885.0 L 1236.0 881.0 L 1237.0 880.0 L 1260.0 880.0 L 1265.0 879.0 L 1196.0 877.0 L 1195.0 876.0 L 1167.0 876.0 L 1166.0 875.0 L 1134.0 875.0 L 1133.0 874.0 L 1095.0 874.0 L 1094.0 873.0 L 1081.0 873.0 Z"/>
<path d="M 332.0 882.0 L 332.0 876.0 L 328.0 873.0 L 127.0 879.0 L 132.0 880.0 L 158.0 880.0 L 159.0 881.0 L 225.0 882.0 L 226.0 883.0 L 301.0 884.0 L 302.0 885.0 L 329.0 885.0 Z"/>
<path d="M 1150.0 615.0 L 1133.0 626.0 L 1134.0 627.0 L 1141.0 627.0 L 1142.0 630.0 L 1140.0 632.0 L 1129.0 635.0 L 1127.0 633.0 L 1127.0 629.0 L 1112.0 637.0 L 1089.0 645.0 L 1072.0 649.0 L 1056.0 651.0 L 1071.0 651.0 L 1072.0 652.0 L 1074.0 651.0 L 1075.0 652.0 L 1076.0 651.0 L 1095.0 651.0 L 1096.0 650.0 L 1110.0 649.0 L 1131.0 644.0 L 1152.0 637.0 L 1153.0 634.0 L 1152.0 633.0 Z"/>
<path d="M 1170.0 597.0 L 1161.0 606.0 L 1162.0 619.0 L 1163.0 620.0 L 1163.0 632.0 L 1174.0 627.0 L 1176.0 625.0 L 1175.0 624.0 L 1175.0 618.0 L 1172.0 612.0 Z"/>
<path d="M 1261.0 500.0 L 1262.0 501.0 L 1254.0 523.0 L 1252.0 524.0 L 1244.0 512.0 L 1259.0 500.0 Z"/>
<path d="M 1267.0 467.0 L 1268.0 469.0 L 1267.0 470.0 L 1266.0 482.0 L 1245.0 502.0 L 1234.0 510.0 L 1234.0 512.0 L 1237.0 515.0 L 1248.0 533.0 L 1248.0 536.0 L 1244.0 544.0 L 1242.0 545.0 L 1220.0 514.0 L 1217.0 507.0 L 1224.0 501.0 L 1229.0 499.0 L 1242.0 490.0 Z"/>
<path d="M 1226.0 437.0 L 1228.0 437.0 L 1237.0 447.0 L 1227.0 457.0 L 1217.0 448.0 L 1217.0 446.0 Z"/>
<path d="M 1207.0 401.0 L 1209.0 424.0 L 1212.0 422.0 L 1215.0 422.0 L 1221.0 428.0 L 1216.0 434.0 L 1212.0 437.0 L 1210.0 437.0 L 1210.0 455.0 L 1219.0 463.0 L 1217.0 466.0 L 1215.0 464.0 L 1210.0 465.0 L 1210.0 477.0 L 1209.0 478.0 L 1210.0 482.0 L 1226.0 470.0 L 1250.0 448.0 L 1221.0 414.0 Z"/>
<path d="M 1252.0 375.0 L 1255.0 377.0 L 1258.0 385.0 L 1256.0 395.0 L 1263.0 401.0 L 1267.0 421.0 L 1267.0 426.0 L 1266.0 427.0 L 1236.0 394.0 Z"/>
<path d="M 1220.0 360.0 L 1218.0 363.0 L 1218.0 367.0 L 1220.0 369.0 L 1226.0 369.0 L 1228.0 366.0 L 1227.0 361.0 L 1224.0 359.0 Z"/>
<path d="M 1174.0 349.0 L 1197.0 370.0 L 1201.0 378.0 L 1202.0 383.0 L 1211.0 388.0 L 1245.0 422.0 L 1268.0 448.0 L 1264.0 453.0 L 1241.0 473.0 L 1209.0 497.0 L 1204.0 502.0 L 1202.0 509.0 L 1196.0 519.0 L 1180.0 537.0 L 1179.0 535.0 L 1186.0 518.0 L 1186.0 516.0 L 1182.0 513.0 L 1184.0 502.0 L 1185.0 501.0 L 1190.0 506.0 L 1194.0 499.0 L 1196.0 490.0 L 1197.0 471.0 L 1198.0 470.0 L 1198.0 436.0 L 1196.0 432.0 L 1197.0 431.0 L 1196.0 429.0 L 1197.0 417.0 L 1196.0 416.0 L 1196.0 409.0 L 1193.0 393.0 L 1189.0 380.0 L 1184.0 383.0 L 1182.0 378.0 L 1182.0 374.0 L 1177.0 374.0 L 1175.0 372.0 L 1174.0 367.0 L 1176.0 364.0 L 1178.0 364.0 L 1178.0 361.0 L 1173.0 350.0 Z"/>
<path d="M 1193.0 322.0 L 1191.0 324.0 L 1198.0 333.0 L 1201.0 329.0 L 1201.0 325.0 L 1198.0 322.0 Z"/>
<path d="M 1189.0 296.0 L 1191.0 295.0 L 1193.0 298.0 L 1191.0 299.0 Z"/>
<path d="M 1019.0 271.0 L 1047.0 270.0 L 1048.0 271.0 L 1056.0 271.0 L 1057.0 272.0 L 1067.0 273.0 L 1081.0 277.0 L 1093.0 282.0 L 1109.0 291.0 L 1120.0 299.0 L 1133.0 311.0 L 1134.0 311.0 L 1133.0 307.0 L 1133.0 301.0 L 1134.0 300.0 L 1147.0 314.0 L 1150.0 315.0 L 1163.0 328.0 L 1162.0 329.0 L 1148.0 328.0 L 1159.0 346.0 L 1172.0 374.0 L 1179.0 396.0 L 1183.0 416.0 L 1183.0 422.0 L 1184.0 423.0 L 1185.0 445.0 L 1186.0 446.0 L 1186.0 464.0 L 1185.0 465.0 L 1184.0 487.0 L 1183.0 488.0 L 1183.0 494.0 L 1180.0 510.0 L 1169.0 543.0 L 1159.0 563.0 L 1150.0 576.0 L 1151.0 575.0 L 1153.0 576.0 L 1146.0 581.0 L 1141.0 587.0 L 1143.0 591.0 L 1130.0 601.0 L 1129.0 600.0 L 1132.0 595.0 L 1118.0 606.0 L 1099.0 616.0 L 1078.0 623.0 L 1066.0 624.0 L 1065.0 625.0 L 1044.0 626.0 L 1043.0 625.0 L 1026.0 624.0 L 1010.0 620.0 L 991.0 612.0 L 967.0 596.0 L 947.0 576.0 L 929.0 550.0 L 918.0 527.0 L 910.0 504.0 L 903.0 469.0 L 901.0 431.0 L 902.0 430.0 L 902.0 416.0 L 903.0 415.0 L 904.0 402.0 L 909.0 379.0 L 915.0 361.0 L 926.0 337.0 L 937.0 320.0 L 946.0 309.0 L 964.0 293.0 L 987.0 280.0 L 1001.0 275.0 Z"/>
<path d="M 1155.0 265.0 L 1156.0 267.0 L 1155.0 270.0 L 1153.0 271.0 L 1150.0 268.0 Z"/>
<path d="M 912.0 301.0 L 891.0 321.0 L 876.0 340.0 L 869.0 351.0 L 859.0 371.0 L 850.0 395.0 L 846.0 410.0 L 844.0 426.0 L 843.0 427.0 L 843.0 434.0 L 842.0 435.0 L 842.0 474.0 L 843.0 475.0 L 843.0 482.0 L 848.0 506.0 L 854.0 523.0 L 863.0 542.0 L 878.0 565.0 L 890.0 579.0 L 905.0 593.0 L 930.0 611.0 L 953.0 623.0 L 975.0 631.0 L 990.0 635.0 L 1006.0 638.0 L 1012.0 638.0 L 1013.0 639.0 L 1023.0 639.0 L 1024.0 640.0 L 1049.0 640.0 L 1050.0 639.0 L 1058.0 639.0 L 1059.0 638.0 L 1065.0 638.0 L 1085.0 634.0 L 1108.0 626.0 L 1126.0 617.0 L 1152.0 598.0 L 1166.0 584.0 L 1181.0 564.0 L 1198.0 532.0 L 1204.0 517.0 L 1206.0 515.0 L 1230.0 547.0 L 1235.0 555.0 L 1235.0 558.0 L 1231.0 564.0 L 1222.0 571.0 L 1222.0 574.0 L 1219.0 578.0 L 1199.0 578.0 L 1197.0 576.0 L 1203.0 569.0 L 1210.0 557.0 L 1219.0 557.0 L 1222.0 555.0 L 1217.0 546.0 L 1215.0 546.0 L 1214.0 544.0 L 1207.0 549.0 L 1204.0 546.0 L 1194.0 565.0 L 1184.0 580.0 L 1184.0 583.0 L 1186.0 586.0 L 1201.0 586.0 L 1202.0 585.0 L 1201.0 581.0 L 1203.0 579.0 L 1205.0 579.0 L 1207.0 582.0 L 1207.0 586.0 L 1211.0 587.0 L 1212.0 596.0 L 1210.0 599.0 L 1204.0 599.0 L 1202.0 597.0 L 1195.0 596.0 L 1183.0 601.0 L 1183.0 611.0 L 1180.0 618.0 L 1179.0 624.0 L 1193.0 616.0 L 1207.0 606.0 L 1226.0 589.0 L 1244.0 568.0 L 1259.0 544.0 L 1273.0 512.0 L 1281.0 480.0 L 1281.0 473.0 L 1282.0 472.0 L 1282.0 460.0 L 1283.0 459.0 L 1282.0 426.0 L 1274.0 390.0 L 1261.0 358.0 L 1249.0 338.0 L 1233.0 317.0 L 1208.0 293.0 L 1185.0 277.0 L 1176.0 272.0 L 1174.0 272.0 L 1178.0 279.0 L 1181.0 289.0 L 1180.0 310.0 L 1186.0 315.0 L 1189.0 313.0 L 1191.0 306.0 L 1196.0 305.0 L 1199.0 302.0 L 1210.0 312.0 L 1205.0 329.0 L 1206.0 335.0 L 1204.0 340.0 L 1204.0 345.0 L 1208.0 352.0 L 1210.0 359.0 L 1211.0 360.0 L 1216.0 338.0 L 1219.0 329.0 L 1219.0 325.0 L 1221.0 323.0 L 1229.0 332.0 L 1237.0 344.0 L 1235.0 346.0 L 1231.0 356.0 L 1237.0 359.0 L 1243.0 354.0 L 1248.0 362.0 L 1226.0 385.0 L 1216.0 376.0 L 1213.0 369.0 L 1211.0 371.0 L 1211.0 373.0 L 1209.0 375.0 L 1200.0 357.0 L 1190.0 341.0 L 1175.0 322.0 L 1154.0 302.0 L 1132.0 286.0 L 1129.0 287.0 L 1120.0 279.0 L 1103.0 271.0 L 1086.0 265.0 L 1069.0 261.0 L 1054.0 260.0 L 1053.0 259.0 L 1015.0 259.0 L 1014.0 260.0 L 1007.0 260.0 L 1006.0 261.0 L 990.0 263.0 L 964.0 271.0 L 952.0 276.0 L 930.0 288.0 Z"/>
<path d="M 1055.0 248.0 L 1073.0 250.0 L 1086.0 254.0 L 1091.0 254.0 L 1092.0 253.0 L 1096.0 254.0 L 1099.0 258.0 L 1114.0 264.0 L 1114.0 259.0 L 1118.0 258.0 L 1117.0 257.0 L 1119.0 256.0 L 1122.0 260.0 L 1126.0 261.0 L 1128.0 263.0 L 1129.0 269.0 L 1133.0 269.0 L 1138.0 266.0 L 1150.0 269.0 L 1155.0 272.0 L 1154.0 275.0 L 1139.0 275.0 L 1138.0 274.0 L 1135.0 277.0 L 1138.0 278.0 L 1150.0 287.0 L 1155.0 284.0 L 1158.0 284.0 L 1160.0 287.0 L 1160.0 294.0 L 1166.0 298.0 L 1167.0 284.0 L 1168.0 281.0 L 1170.0 280.0 L 1170.0 275.0 L 1172.0 270.0 L 1162.0 265.0 L 1134.0 255.0 L 1101.0 248.0 L 1091.0 248.0 L 1090.0 247.0 Z"/>
<path d="M 720.0 178.0 L 721.0 182.0 L 724.0 184.0 L 940.0 183.0 L 941.0 182.0 L 1028.0 182.0 L 1029.0 181.0 L 1104.0 181.0 L 1105.0 180.0 L 1187.0 179.0 L 1118.0 178.0 L 1117.0 177.0 L 1053.0 177.0 L 1052.0 176.0 L 876.0 175.0 L 875.0 174.0 L 736.0 174.0 L 735.0 173.0 L 726.0 173.0 L 723.0 174.0 Z"/>
<path d="M 673.0 179.0 L 672.0 176.0 L 668.0 173.0 L 663.0 173.0 L 662.0 174.0 L 411.0 175.0 L 410.0 176.0 L 339.0 176.0 L 338.0 177.0 L 270.0 177.0 L 269.0 178.0 L 198.0 179.0 L 289.0 180.0 L 290.0 181.0 L 371.0 181.0 L 372.0 182.0 L 461.0 182.0 L 462.0 183.0 L 606.0 183.0 L 607.0 184.0 L 669.0 184.0 L 671.0 183.0 Z"/>
<path d="M 694.0 168.0 L 689.0 171.0 L 687.0 174.0 L 686.0 180.0 L 688.0 185.0 L 691.0 188.0 L 700.0 189.0 L 704.0 187.0 L 706.0 184.0 L 707.0 175.0 L 702.0 169.0 Z"/>
<path d="M 763.0 140.0 L 784.0 117.0 L 788.0 120.0 L 804.0 139.0 L 806.0 140.0 L 805.0 141.0 L 764.0 141.0 Z"/>
<path d="M 585.0 140.0 L 605.0 117.0 L 617.0 128.0 L 627.0 140.0 L 626.0 141.0 L 586.0 141.0 Z"/>
<path d="M 743.0 149.0 L 743.0 150.0 L 826.0 150.0 L 785.0 104.0 L 775.0 113.0 Z"/>
<path d="M 565.0 149.0 L 565.0 150.0 L 648.0 150.0 L 606.0 103.0 Z"/>
<path d="M 697.0 94.0 L 688.0 103.0 L 689.0 107.0 L 697.0 115.0 L 706.0 105.0 Z"/>
<path d="M 696.0 69.0 L 702.0 74.0 L 727.0 104.0 L 725.0 108.0 L 697.0 140.0 L 695.0 139.0 L 666.0 105.0 Z"/>
<path d="M 697.0 51.0 L 652.0 104.0 L 655.0 109.0 L 697.0 157.0 L 742.0 105.0 Z"/>
</g>
</svg>